<?xml version="1.0" encoding="utf-8"?>
<!-- Generator: Adobe Illustrator 18.1.0, SVG Export Plug-In . SVG Version: 6.00 Build 0)  -->
<!DOCTYPE svg PUBLIC "-//W3C//DTD SVG 1.1//EN" "http://www.w3.org/Graphics/SVG/1.1/DTD/svg11.dtd">
<svg version="1.1" id="Layer_1" xmlns="http://www.w3.org/2000/svg" xmlns:xlink="http://www.w3.org/1999/xlink" x="0px" y="0px"
	 viewBox="0 0 1000 792" enable-background="new 0 0 1000 792" xml:space="preserve">
<g>
	<path d="M185.7,152.7h-14c-1,0-2-1-2-2V140c0-1,0.7-2,2-2h43.7c1,0,2,1,2,2v10.7c0,1-0.7,2-2,2h-14v52.7c0,1-1,2-2,2h-11.7
		c-1,0-2-1-2-2V152.7z"/>
	<path d="M256,204.3l30.7-66.3c0.3-0.7,1-1,1.7-1h1c0.7,0,1.3,0.3,1.7,1l30.7,66.3c0.7,1.3-0.3,2.7-1.7,2.7h-11
		c-1.7,0-2.7-0.7-3.3-2.3l-3.3-8h-26.7l-3.7,8c-0.3,1.3-1.7,2.3-3.7,2.3h-11C256,207,255.3,205.7,256,204.3z M296.3,183.3L289,167
		l0,0l-7.7,16.3H296.3z"/>
	<path d="M376.7,152.7h-14c-1,0-2-1-2-2V140c0-1,0.7-2,2-2h43.7c1,0,2,1,2,2v10.7c0,1-0.7,2-2,2h-14v52.7c0,1-1,2-2,2h-11.7
		c-1,0-2-1-2-2L376.7,152.7L376.7,152.7z"/>
	<path d="M459.3,140c0-1,1-2,2-2H473c1,0,2,1,2,2v65.3c0,1-1,2-2,2h-11.7c-1,0-2-1-2-2V140z"/>
	<path d="M524.3,204.3L555,138c0.3-0.7,1-1,1.7-1h1c0.7,0,1.3,0.3,1.7,1l30.7,66.3c0.7,1.3-0.3,2.7-1.7,2.7h-11
		c-1.7,0-2.7-0.7-3.3-2.3l-3.7-7.7h-26.7l-3.7,8c-0.3,1.3-1.7,2.3-3.7,2.3h-11C524.7,207,524,205.7,524.3,204.3z M565,183.3
		l-7.3-16.3l0,0l-7.7,16.3H565z"/>
	<path d="M639.7,138.7c0-1,1-1.7,2-1.7h2.3l39.3,38l0,0v-35c0-1,0.7-2,2-2H697c1,0,2,1,2,2v66.3c0,1-1,1.7-2,1.7h-1.7
		c-0.3,0-1-0.3-1.3-0.3l-39-39l0,0v36.7c0,1-0.7,2-2,2h-11.7c-1,0-2-1-2-2L639.7,138.7z"/>
	<path d="M748.7,204.3l30.7-66.3c0.3-0.7,1-1,1.7-1h1c0.7,0,1.3,0.3,1.7,1l30.7,66.3c0.7,1.3-0.3,2.7-1.7,2.7h-11
		c-1.7,0-2.7-0.7-3.3-2.3l-3.7-7.7H768l-3.7,8c-0.3,1.3-1.7,2.3-3.7,2.3h-11C748.7,207,748,205.7,748.7,204.3z M789,183.3l-7.3-16.3
		l0,0l-7.3,16.3H789z"/>
</g>
</svg>
