<?xml version="1.0" encoding="UTF-8" standalone="no"?>
<!-- Generator: Adobe Illustrator 17.0.0, SVG Export Plug-In . SVG Version: 6.00 Build 0)  -->

<svg
   xmlns:dc="http://purl.org/dc/elements/1.1/"
   xmlns:cc="http://creativecommons.org/ns#"
   xmlns:rdf="http://www.w3.org/1999/02/22-rdf-syntax-ns#"
   xmlns:svg="http://www.w3.org/2000/svg"
   xmlns="http://www.w3.org/2000/svg"
   xmlns:sodipodi="http://sodipodi.sourceforge.net/DTD/sodipodi-0.dtd"
   xmlns:inkscape="http://www.inkscape.org/namespaces/inkscape"
   version="1.1"
   id="Layer_1"
   sodipodi:docname="cap-butt.svg"
   inkscape:version="0.48.5 r10040"
   x="0px"
   y="0px"
   width="20"
   height="20"
   viewBox="0 0 20 20"
   enable-background="new 0 0 1000 500"
   xml:space="preserve"><metadata
     id="metadata7048"><rdf:RDF><cc:Work
         rdf:about=""><dc:format>image/svg+xml</dc:format><dc:type
           rdf:resource="http://purl.org/dc/dcmitype/StillImage" /></cc:Work></rdf:RDF></metadata><defs
     id="defs7046" /><sodipodi:namedview
     inkscape:cy="7.379426"
     inkscape:cx="14.727863"
     inkscape:zoom="11.313708"
     showgrid="false"
     guidetolerance="10"
     gridtolerance="10"
     pagecolor="#ffffff"
     borderopacity="1"
     bordercolor="#666666"
     objecttolerance="10"
     id="namedview3007"
     inkscape:current-layer="Layer_1"
     inkscape:window-maximized="1"
     inkscape:window-y="0"
     inkscape:window-x="0"
     inkscape:pageshadow="2"
     inkscape:pageopacity="0"
     inkscape:window-height="751"
     inkscape:window-width="1280"
     inkscape:snap-bbox="true"
     inkscape:snap-nodes="true"><inkscape:grid
       type="xygrid"
       id="grid3837"
       empspacing="5"
       visible="true"
       enabled="true"
       snapvisiblegridlinesonly="true" /></sodipodi:namedview><path
     style="fill:#000000;fill-opacity:1;stroke:none"
     d="m 8,3 0,1.5 c -2.761424,0 -5,2.238576 -5,5 0,2.761424 2.238576,5 5,5 l 0,1.5 9,0 0,-5 -4.25,0 -2.15625,0 C 10.074704,11.895413 9.109459,12.5 8,12.5 c -1.656854,0 -3,-1.343146 -3,-3 0,-1.656854 1.343146,-3 3,-3 1.109459,0 2.074704,0.604587 2.59375,1.5 L 12.75,8 17,8 17,3 8,3 z"
     id="rect8166"
     inkscape:connector-curvature="0" /></svg>